<svg width="130" height="129" viewBox="0 0 130 129" fill="none" xmlns="http://www.w3.org/2000/svg">
<path fill-rule="evenodd" clip-rule="evenodd" d="M129.318 64.5547C129.318 100.033 100.557 128.795 65.0779 128.795C29.5991 128.795 0.837891 100.033 0.837891 64.5547C0.837891 29.0759 29.5991 0.314697 65.0779 0.314697C100.557 0.314697 129.318 29.0759 129.318 64.5547ZM94.0759 62.6298C94.3962 63.2548 94.7165 63.8797 94.9978 64.5047V64.5547C97.0931 69.3689 97.9221 74.6389 97.4061 79.8639C96.89 85.0888 95.046 90.0949 92.0494 94.4061C89.0527 98.7173 85.0031 102.19 80.2856 104.495C75.568 106.799 70.3394 107.859 65.0969 107.573C59.8543 107.286 54.7722 105.664 50.3336 102.859C45.8951 100.055 42.2477 96.1615 39.7383 91.5496C37.2289 86.9378 35.9409 81.7607 35.9969 76.5106C36.0528 71.2606 37.4507 66.1121 40.0578 61.5547L39.8878 61.4547L66.7778 20.2247L93.6778 61.4047L93.5078 61.5047C93.6915 61.8797 93.8837 62.2548 94.0759 62.6298ZM67.8678 92.4347C71.3547 92.5231 74.7749 91.4697 77.6078 89.4347C82.2678 85.9347 84.6078 79.7247 84.6178 70.9547C84.5798 70.3878 84.3279 69.8565 83.9129 69.4684C83.4979 69.0802 82.951 68.8643 82.3828 68.8643C81.8146 68.8643 81.2676 69.0802 80.8527 69.4684C80.4377 69.8565 80.1857 70.3878 80.1478 70.9547C80.1478 78.1947 78.3978 83.1847 74.9478 85.8047C70.7861 88.9702 65.1941 87.7496 64.3538 87.5662C64.2915 87.5526 64.2554 87.5447 64.2478 87.5447C63.6776 87.383 63.0664 87.4543 62.5488 87.7431C62.0312 88.0319 61.6496 88.5145 61.4878 89.0847C61.326 89.6549 61.3974 90.2661 61.6862 90.7837C61.975 91.3013 62.4576 91.6829 63.0278 91.8447C64.6099 92.2441 66.2361 92.4423 67.8678 92.4347Z" fill="white"/>
</svg>
