<svg width="461" height="461" viewBox="0 0 461 461" fill="none" xmlns="http://www.w3.org/2000/svg">
<path fill-rule="evenodd" clip-rule="evenodd" d="M0.369141 0.357361H460.91V460.899H0.369141V0.357361ZM276.783 278.723C270.339 280.331 264.266 283.166 258.894 287.073C250.627 293.332 240.542 296.719 230.174 296.719C219.805 296.719 209.72 293.332 201.453 287.073C193.187 280.812 183.1 277.424 172.729 277.424C162.357 277.424 152.271 280.812 144.004 287.073C135.737 293.332 125.652 296.719 115.283 296.719C104.915 296.719 94.8301 293.332 86.5635 287.073C78.2471 280.908 68.1953 277.53 57.8438 277.423C50.7793 277.444 43.8105 279.054 37.4531 282.133V197.593H10.1133L160.783 67.593L208.113 112.923V81.593H262.113V158.923L303.453 194.923H276.783V278.723ZM425.703 338.523C435.64 345.828 447.622 349.823 459.953 349.943V330.973C451.796 330.893 443.867 328.267 437.273 323.463L436.754 323.093C426.875 315.677 414.856 311.668 402.504 311.668C390.151 311.668 378.132 315.677 368.254 323.093C360.953 328.313 353.144 330.963 345.063 330.963C336.906 330.883 328.977 328.257 322.384 323.453L321.863 323.083C311.984 315.667 299.966 311.658 287.613 311.658C275.261 311.658 263.242 315.667 253.363 323.083C246.063 328.303 238.264 330.953 230.174 330.953C222.016 330.873 214.087 328.247 207.493 323.443L206.974 323.073C197.095 315.657 185.076 311.648 172.724 311.648C160.371 311.648 148.353 315.657 138.474 323.073C131.174 328.293 123.374 330.943 115.283 330.943C107.126 330.863 99.1973 328.237 92.6035 323.433L92.0938 323.063C82.1553 315.761 70.1748 311.767 57.8438 311.643C45.5098 311.763 33.5273 315.762 23.5938 323.073C16.2832 328.293 8.4834 330.943 0.393555 330.943V349.943C12.7246 349.821 24.7061 345.826 34.6436 338.523C41.9434 333.293 49.7539 330.643 57.8438 330.643C65.9971 330.73 73.9209 333.355 80.5137 338.153L81.0332 338.523C90.9707 345.826 102.952 349.821 115.283 349.943C127.615 349.821 139.597 345.826 149.533 338.523C156.834 333.293 164.644 330.643 172.733 330.643C180.887 330.73 188.811 333.355 195.403 338.153L195.924 338.523C205.804 345.936 217.822 349.943 230.174 349.943C242.525 349.943 254.544 345.936 264.424 338.523C271.724 333.293 279.533 330.643 287.624 330.643C295.777 330.73 303.701 333.355 310.294 338.153L310.813 338.523C320.693 345.936 332.712 349.943 345.063 349.943C357.415 349.943 369.434 345.936 379.313 338.523C386.613 333.293 394.424 330.643 402.504 330.643C410.66 330.728 418.588 333.353 425.184 338.153L425.703 338.523ZM345.063 393.663C332.732 393.541 320.751 389.546 310.813 382.243L310.243 381.833C303.661 377.057 295.756 374.446 287.624 374.363C279.533 374.363 271.724 377.013 264.424 382.243C254.544 389.656 242.525 393.663 230.174 393.663C217.822 393.663 205.804 389.656 195.924 382.243L195.354 381.833C188.771 377.057 180.866 374.446 172.733 374.363C164.644 374.363 156.844 377.013 149.533 382.243C139.597 389.546 127.615 393.541 115.283 393.663C102.952 393.541 90.9707 389.546 81.0332 382.243L80.4736 381.833C73.8877 377.057 65.9785 374.446 57.8438 374.363C49.7539 374.363 41.9531 377.013 34.6436 382.233C24.709 389.543 12.7266 393.542 0.393555 393.663V374.663C8.4834 374.663 16.2832 372.013 23.5938 366.783C33.5303 359.478 45.5117 355.483 57.8438 355.363C70.1748 355.486 82.1553 359.481 92.0938 366.783L92.6533 367.183C99.2383 371.964 107.146 374.578 115.283 374.663C123.374 374.663 131.174 372.013 138.483 366.783C148.362 359.371 160.379 355.364 172.729 355.364C185.078 355.364 197.095 359.371 206.974 366.783L207.544 367.183C214.128 371.964 222.037 374.578 230.174 374.663C238.264 374.663 246.063 372.013 253.363 366.783C263.243 359.37 275.262 355.363 287.613 355.363C299.965 355.363 311.983 359.37 321.863 366.783L322.434 367.183C329.019 371.964 336.927 374.578 345.063 374.663C353.144 374.663 360.953 372.013 368.254 366.783C378.134 359.37 390.152 355.363 402.504 355.363C414.855 355.363 426.873 359.37 436.754 366.783L437.323 367.183C443.908 371.964 451.817 374.578 459.953 374.663V393.663C447.622 393.543 435.64 389.548 425.703 382.243L425.134 381.833C418.548 377.055 410.64 374.445 402.504 374.363C394.424 374.363 386.613 377.013 379.313 382.243C369.376 389.545 357.395 393.54 345.063 393.663ZM441.783 263.903L447.184 266.223C449.735 267.316 451.91 269.135 453.437 271.453C454.964 273.771 455.776 276.487 455.773 279.263V296.193C448.03 295.432 440.578 292.841 434.033 288.633C435.277 287.889 436.306 286.835 437.02 285.574C437.733 284.313 438.108 282.889 438.106 281.44C438.104 279.991 437.727 278.567 437.01 277.308C436.292 276.049 435.261 274.997 434.015 274.257C432.77 273.516 431.354 273.111 429.904 273.082C428.456 273.053 427.024 273.4 425.75 274.09C424.477 274.78 423.403 275.789 422.636 277.019C421.868 278.248 421.434 279.655 421.374 281.103C415.427 278.473 408.996 277.111 402.493 277.103C392.142 277.209 382.089 280.587 373.773 286.753C365.508 293.015 355.423 296.404 345.054 296.404C334.685 296.404 324.599 293.015 316.334 286.753C314.044 285.105 311.63 283.638 309.113 282.363V259.653C309.113 257.851 309.469 256.067 310.158 254.403C310.848 252.738 311.858 251.226 313.132 249.952C314.406 248.677 315.919 247.667 317.583 246.977C319.248 246.288 321.032 245.933 322.834 245.933H328.783L346.504 212.593C347.93 209.908 350.19 207.759 352.945 206.473C355.7 205.187 358.799 204.832 361.773 205.463L429.983 220.063C433.321 220.781 436.312 222.62 438.46 225.274C440.606 227.929 441.78 231.239 441.783 234.653V263.903ZM331.169 276.309C332.671 277.311 334.438 277.845 336.243 277.843C338.663 277.84 340.983 276.877 342.693 275.165C344.403 273.453 345.363 271.133 345.363 268.713C345.363 266.907 344.828 265.141 343.824 263.64C342.82 262.138 341.394 260.968 339.726 260.277C338.057 259.586 336.22 259.406 334.448 259.759C332.678 260.112 331.051 260.983 329.774 262.261C328.498 263.539 327.629 265.166 327.277 266.938C326.927 268.71 327.108 270.546 327.802 272.214C328.494 273.882 329.666 275.307 331.169 276.309ZM341.394 247.233L429.743 261.353L429.703 243.033C429.703 240.247 428.746 237.546 426.99 235.383C425.235 233.22 422.789 231.727 420.063 231.153L366.634 219.863C364.305 219.372 361.88 219.61 359.69 220.543C357.501 221.477 355.651 223.062 354.394 225.083L341.394 247.233Z" fill="white"/>
</svg>
